PathFileType	4	(X/Y/Z)	./resultDataOpenSim/trcMotMarkerGrf/sub10/qtm-01-01.trc
DataRate	CameraRate	NumFrames	NumMarkers	Units	OrigDataRate	OrigDataStartFrame	OrigNumFrames
250.000000	250.000000	8	24	m	250.000000	300	479
Frame#	Time	L.Toe.Tip			R.Toe.Tip			L.Ankle.Lat			R.Ankle.Lat			L.Ankle.Med			R.Ankle.Med			L.Heel			R.Heel			L.Knee.Lat			R.Knee.Lat			L.Knee.Med			R.Knee.Med			L.Thigh.Upper			R.Thigh.Upper			L.ASIS			R.ASIS			V.Sacral			L.Acromium			R.Acromium			C7			L.Elbow			R.Elbow			L.Wrist.Lat			R.Wrist.Lat
		X1	Y1	Z1	X2	Y2	Z2	X3	Y3	Z3	X4	Y4	Z4	X5	Y5	Z5	X6	Y6	Z6	X7	Y7	Z7	X8	Y8	Z8	X9	Y9	Z9	X10	Y10	Z10	X11	Y11	Z11	X12	Y12	Z12	X13	Y13	Z13	X14	Y14	Z14	X15	Y15	Z15	X16	Y16	Z16	X17	Y17	Z17	X18	Y18	Z18	X19	Y19	Z19	X20	Y20	Z20	X21	Y21	Z21	X22	Y22	Z22	X23	Y23	Z23	X24	Y24	Z24

300	1.196	0.0027961447	0.042320808	-0.14521984	0.73101176	0.085539119	0.011050973	-0.10985673	0.11730065	-0.16146349	0.5949739	0.052355086	0.045428056	-0.086761701	0.13202902	-0.079100315	0.60691857	0.089242917	-0.035313255	-0.17768291	0.11606999	-0.11429447	0.5589601	0.015900167	-0.0045907602	0.099584683	0.44299551	-0.20136391	0.48316478	0.44152007	0.077401402	0.11316642	0.4126311	-0.079630551	0.49039463	0.44814888	-0.051987211	0.23317133	0.81298093	-0.25513194	0.34052889	0.82691921	0.11948034	0.32581841	0.90689704	-0.21442276	0.39308258	0.91632347	0.028992127	0.16956092	0.92704489	-0.031654267	0.3055117	1.3858905	-0.22325819	0.27640375	1.3740875	0.102697	0.20612928	1.4116735	-0.072829016	0.28814934	1.0332176	-0.28761278	0.12385641	1.0606612	0.11277256	0.5131091	0.93019146	-0.28469857	0.17261157	0.83605125	0.19367427
301	1.2	0.0033678192	0.042462946	-0.14514895	0.73415971	0.080580794	0.012105233	-0.10759289	0.1198702	-0.16171199	0.5967117	0.052110731	0.044920223	-0.084073294	0.13426408	-0.079410594	0.6104382	0.088738485	-0.035723465	-0.17526339	0.11979238	-0.11452709	0.56001632	0.016952268	-0.0053155784	0.1052256	0.44340184	-0.20104773	0.48822056	0.44093328	0.078075806	0.11897344	0.41277207	-0.079543664	0.49614165	0.4478595	-0.051136501	0.239887	0.81282416	-0.25443122	0.3477493	0.82741546	0.12007166	0.33296434	0.90644379	-0.21399391	0.40018083	0.91688847	0.029360094	0.17226613	0.92855217	-0.028965416	0.31120679	1.3861421	-0.22241239	0.28264066	1.3741177	0.10353463	0.21196418	1.4114851	-0.07184442	0.29328668	1.0335048	-0.28641022	0.13040648	1.0606902	0.11312105	0.51827242	0.93012323	-0.28420912	0.17862865	0.83602961	0.19424197
302	1.204	0.0040025223	0.042611187	-0.14506468	0.73820181	0.075901134	0.01311086	-0.10515509	0.1224859	-0.16198857	0.59911331	0.052223772	0.044550806	-0.081203942	0.13650329	-0.079775064	0.61451204	0.088546583	-0.036140395	-0.1726523	0.12359633	-0.1148193	0.56131658	0.018288065	-0.0058623017	0.11086833	0.44380254	-0.20051599	0.49300132	0.44044472	0.078739079	0.12496297	0.41281896	-0.079434484	0.50164275	0.44752506	-0.050325519	0.24668327	0.8125801	-0.25365704	0.35507305	0.82798489	0.12078634	0.34020234	0.90600793	-0.21351662	0.40725776	0.91747361	0.029726625	0.17380857	0.93043516	-0.025611059	0.31693527	1.3864611	-0.22155852	0.28891142	1.3741832	0.10440277	0.21778914	1.4113304	-0.070843091	0.29841025	1.0338348	-0.28526394	0.13704375	1.0607206	0.11347939	0.52336622	0.93002226	-0.28373767	0.18470659	0.83602987	0.19481599
303	1.208	0.0047172499	0.042769355	-0.1449489	0.74251501	0.071974067	0.013876131	-0.10251624	0.12513902	-0.16228574	0.60193344	0.052343284	0.044436956	-0.078197905	0.13871378	-0.080226592	0.61850927	0.088341765	-0.036398945	-0.16986201	0.12747988	-0.11521008	0.5626377	0.019591534	-0.0060235004	0.11656682	0.44417256	-0.19983848	0.49754178	0.44012738	0.079338436	0.13119208	0.41275342	-0.079362843	0.50688066	0.44719727	-0.049631327	0.25361172	0.81225853	-0.25284897	0.36249965	0.82867134	0.12160899	0.34751934	0.90559783	-0.21298439	0.41432036	0.91807216	0.030112147	0.17690125	0.9318983	-0.023239621	0.32268846	1.3868545	-0.22071617	0.29521688	1.3742868	0.10529221	0.22361834	1.4112301	-0.069823736	0.30356205	1.0342	-0.28420071	0.14376338	1.060754	0.1138699	0.52838916	0.92989584	-0.28327853	0.19080765	0.83605238	0.19539352
304	1.212	0.0055108201	0.042932603	-0.14480199	0.74637947	0.068809845	0.014275889	-0.099664493	0.12781806	-0.16258721	0.60477026	0.052293149	0.044567117	-0.075067504	0.14089301	-0.08075719	0.62196733	0.08798194	-0.036413028	-0.16689653	0.13144198	-0.11568863	0.5638109	0.020721828	-0.0057390747	0.12249266	0.44447424	-0.19919989	0.50199135	0.44005895	0.0798955	0.13773197	0.41263241	-0.079399176	0.51188789	0.44692796	-0.049063918	0.26070097	0.8118698	-0.25204632	0.37002899	0.82951253	0.12249278	0.35490538	0.90522329	-0.21239057	0.42136862	0.9186781	0.030545378	0.18336142	0.93250906	-0.022886264	0.32846268	1.3873261	-0.21989796	0.30156043	1.3744356	0.10619064	0.22947397	1.4112119	-0.06878418	0.30876121	1.0346148	-0.28315424	0.15056246	1.0608003	0.11430936	0.5333413	0.92974855	-0.28282536	0.19691596	0.83609609	0.19597772
305	1.216	0.0063714272	0.043090952	-0.14464067	0.74936058	0.065994528	0.014319591	-0.096611829	0.13052256	-0.16288832	0.60732254	0.052077667	0.044896845	-0.071792974	0.14304939	-0.081332016	0.62477121	0.087506421	-0.036189998	-0.16371817	0.13548087	-0.11616261	0.56478809	0.021697411	-0.005131875	0.1288128	0.44466591	-0.19883615	0.5065544	0.44030326	0.080486825	0.14460087	0.41250589	-0.079543996	0.51672451	0.44676797	-0.048572201	0.26795084	0.81141848	-0.2512703	0.37765622	0.83052875	0.12338445	0.36234405	0.90488814	-0.21173777	0.42839867	0.91928804	0.031035675	0.19288767	0.93247997	-0.024257446	0.33426996	1.3878798	-0.219105	0.30793316	1.3746333	0.10708791	0.23538135	1.4112998	-0.067721109	0.31406186	1.0351015	-0.28203307	0.15743752	1.0608714	0.11481003	0.53822495	0.92958056	-0.28237311	0.20307321	0.83615633	0.19656961
306	1.22	0.0072798803	0.043230213	-0.14448717	0.75145614	0.063028512	0.014098848	-0.093379238	0.13326047	-0.16320034	0.60947406	0.05175728	0.045404862	-0.068305001	0.14519162	-0.081918828	0.62703092	0.087004702	-0.035782462	-0.16025234	0.13958686	-0.11651286	0.56561447	0.022595298	-0.0044207673	0.13551928	0.44472627	-0.19892635	0.51137478	0.4408787	0.081171159	0.15171362	0.41237098	-0.079704947	0.5214306	0.44676657	-0.048067749	0.27534388	0.81090424	-0.25052559	0.38536713	0.83172639	0.12424646	0.36980914	0.90458464	-0.21103687	0.43541145	0.91990206	0.031562031	0.20360742	0.932314	-0.026202193	0.34012457	1.3885152	-0.21832665	0.31431232	1.374876	0.10797578	0.24136109	1.4115059	-0.066627961	0.31955058	1.0356718	-0.28076352	0.16437795	1.0609747	0.11537946	0.54303701	0.9293924	-0.28192154	0.20935613	0.83622829	0.19716682
307	1.224	0.0082161168	0.043334076	-0.14435371	0.75297158	0.059635412	0.013687908	-0.089971934	0.13603165	-0.16352992	0.61123728	0.051378072	0.04606596	-0.06450858	0.14732654	-0.082502724	0.62891458	0.086528923	-0.0352459	-0.15642591	0.1437459	-0.11669044	0.56634437	0.02346751	-0.0037435144	0.14237035	0.4446841	-0.19945196	0.51651299	0.44173568	0.081957393	0.15895398	0.41219297	-0.079778837	0.52597475	0.44696327	-0.047437477	0.28285412	0.81033148	-0.24981461	0.39313859	0.83310425	0.12506555	0.3772813	0.90430258	-0.2102911	0.44241601	0.92052979	0.032094156	0.21347165	0.93241233	-0.027581907	0.34602445	1.3892215	-0.21754911	0.3206831	1.3751572	0.10884853	0.24742012	1.4118266	-0.065497437	0.32516379	1.0363236	-0.27938272	0.17137591	1.0611106	0.11601342	0.54776753	0.92918564	-0.28147486	0.21580219	0.83631255	0.19776706
